Coordinates
version=1
nRows=19
nColumns=24
inDegrees=yes

Units are S.I. units (second, meters, Newtons, ...)
Angles are in degrees.

endheader
time	pelvis_tilt	pelvis_list	pelvis_rotation	pelvis_tx	pelvis_ty	pelvis_tz	hip_flexion_r	hip_adduction_r	hip_rotation_r	knee_angle_r	ankle_angle_r	subtalar_angle_r	mtp_angle_r	hip_flexion_l	hip_adduction_l	hip_rotation_l	knee_angle_l	ankle_angle_l	subtalar_angle_l	mtp_angle_l	lumbar_extension	lumbar_bending	lumbar_rotation
      1.83400000	      3.75427929	      3.37961639	     -5.92774674	      1.43124357	      1.02736838	      0.25996170	     14.92843502	     -6.17547043	     -3.22075495	    -66.23522904	      5.14383625	     -1.64161829	      3.63906245	      8.28661174	      9.00765451	      0.28915598	    -19.40199642	      8.44348693	    -11.64252778	     -1.26133531	     -2.06528732	     -6.92442623	      5.20095582
      1.83816667	      3.80891763	      3.28335322	     -5.68716533	      1.43556576	      1.02803418	      0.25940627	     15.39152797	     -6.01739384	     -3.29106419	    -65.74438081	      5.46831556	     -1.72188845	      3.73243428	      7.84275527	      8.99504782	      0.59301815	    -19.21348515	      8.51895900	    -11.67430119	     -1.29247418	     -2.25436888	     -6.83854454	      5.03283658
      1.84233333	      3.92732523	      3.18966998	     -5.47363737	      1.44001447	      1.02881743	      0.25885639	     15.75895989	     -5.87539813	     -3.35168016	    -65.18362964	      5.72523222	     -1.83611604	      3.86063704	      7.28693806	      8.99436074	      0.91032154	    -18.94550883	      8.54894349	    -11.78584438	     -1.34485441	     -2.48301943	     -6.72505906	      4.70952735
      1.84650000	      3.99401019	      3.09159744	     -5.22730454	      1.44434028	      1.02947124	      0.25828937	     16.17475046	     -5.72453481	     -3.43731794	    -64.59127573	      5.98035227	     -2.02314201	      3.95399395	      6.82183916	      8.97807036	      1.23606646	    -18.74331817	      8.60519843	    -11.86182230	     -1.38577725	     -2.68223971	     -6.63076206	      4.50124626
      1.85066667	      4.04002925	      2.98769267	     -4.99215557	      1.44873296	      1.03007619	      0.25773318	     16.59208591	     -5.56762324	     -3.52252021	    -63.94835597	      6.18915013	     -2.27197556	      4.02604055	      6.37070382	      8.94898377	      1.54640792	    -18.52688228	      8.65382469	    -11.94241097	     -1.42198198	     -2.83624407	     -6.51603222	      4.28838970
      1.85483333	      4.13154200	      2.89994630	     -4.76464973	      1.45307419	      1.03070925	      0.25718710	     16.95330935	     -5.43424917	     -3.59926551	    -63.26837667	      6.37459315	     -2.54417673	      4.10064262	      5.86502690	      8.93980198	      1.87152200	    -18.28399618	      8.68010965	    -12.06352465	     -1.46460254	     -3.05194450	     -6.41899941	      4.01875737
      1.85900000	      4.19946310	      2.80985477	     -4.53436995	      1.45747631	      1.03131449	      0.25662976	     17.31492145	     -5.30137386	     -3.68650784	    -62.53020706	      6.52952776	     -2.86740526	      4.22266508	      5.37680686	      8.92483981	      2.20245690	    -18.02895231	      8.65002090	    -12.23421201	     -1.54542390	     -3.22114940	     -6.31020826	      3.65792568
      1.86316667	      4.24152660	      2.71999286	     -4.30363807	      1.46181203	      1.03181443	      0.25608626	     17.69911226	     -5.16446305	     -3.76801501	    -61.76444157	      6.67517284	     -3.19274616	      4.30960785	      4.93547119	      8.90179654	      2.52563003	    -17.80635530	      8.68265783	    -12.36268600	     -1.61090345	     -3.36626800	     -6.20026153	      3.44843855
      1.86733333	      4.30296413	      2.61517765	     -4.05621025	      1.46614564	      1.03233668	      0.25551966	     18.03583298	     -5.01936608	     -3.86977641	    -60.94495353	      6.78116564	     -3.52436780	      4.35394997	      4.47617137	      8.85967177	      2.84865490	    -17.59731632	      8.75908637	    -12.44414813	     -1.65316434	     -3.53839219	     -6.06634555	      3.24060737
      1.87150000	      4.34337867	      2.52125122	     -3.83156960	      1.47049742	      1.03280417	      0.25499404	     18.38352002	     -4.87805964	     -3.94599347	    -60.08565688	      6.86565268	     -3.90273505	      4.38871039	      4.03848700	      8.82371218	      3.16418170	    -17.38008605	      8.78303557	    -12.56950976	     -1.70371175	     -3.68016622	     -5.95261110	      3.00497314
      1.87566667	      4.36949607	      2.43855647	     -3.60591432	      1.47482328	      1.03320258	      0.25446909	     18.73662156	     -4.75299725	     -4.02344848	    -59.19973780	      6.95717495	     -4.25829648	      4.40834254	      3.61918571	      8.79470662	      3.47481028	    -17.15910374	      8.80527020	    -12.70014273	     -1.75267518	     -3.80463421	     -5.84506363	      2.78652297
      1.87983333	      4.36802026	      2.34883059	     -3.36855970	      1.47914157	      1.03353719	      0.25394558	     19.10464866	     -4.61864987	     -4.10742359	    -58.27673791	      7.03810791	     -4.60174646	      4.41037295	      3.25235846	      8.75097971	      3.76957930	    -16.99116788	      8.85923192	    -12.79868068	     -1.78404895	     -3.91515113	     -5.73276464	      2.62595693
      1.88400000	      4.39847471	      2.26929411	     -3.16823148	      1.48349647	      1.03390772	      0.25348026	     19.42199564	     -4.48651194	     -4.15017261	    -57.30231358	      7.02656722	     -4.99185076	      4.39831259	      2.81929896	      8.71833863	      4.07682158	    -16.75021832	      8.85520428	    -12.95890415	     -1.83402466	     -4.03191905	     -5.63094385	      2.36701533
      1.88816667	      4.39506448	      2.19874454	     -2.94237743	      1.48784221	      1.03418160	      0.25298947	     19.75910399	     -4.37207699	     -4.21190371	    -56.31238374	      7.06412147	     -5.33351083	      4.36866246	      2.44218722	      8.68928150	      4.38328792	    -16.54947681	      8.85288142	    -13.11473488	     -1.89712925	     -4.12266155	     -5.53968164	      2.13762758
      1.89233333	      4.40548290	      2.11918749	     -2.74204045	      1.49218825	      1.03445882	      0.25253995	     20.06954694	     -4.24183508	     -4.25194090	    -55.27383366	      7.03734139	     -5.64668655	      4.33006279	      2.05219458	      8.64537865	      4.66009572	    -16.35204122	      8.91268325	    -13.21844920	     -1.94044629	     -4.21750293	     -5.43068582	      1.97847015
      1.89650000	      4.37767469	      2.05366385	     -2.53049596	      1.49651252	      1.03463474	      0.25209513	     20.40921784	     -4.12463140	     -4.28459646	    -54.21803620	      7.01182385	     -5.95879645	      4.27432444	      1.71064837	      8.61155753	      4.94680938	    -16.17065769	      8.94652890	    -13.33241464	     -1.98786981	     -4.28194194	     -5.33856775	      1.78336621
      1.90066667	      4.35317060	      1.98961271	     -2.32304962	      1.50087635	      1.03480150	      0.25167253	     20.72825372	     -4.00972050	     -4.31308413	    -53.12445934	      6.95239516	     -6.24004487	      4.21202455	      1.36727434	      8.57318681	      5.21166995	    -15.99079625	      8.99866522	    -13.44709030	     -2.02743024	     -4.32197442	     -5.25547366	      1.61927125
      1.90483333	      4.33002719	      1.93949477	     -2.13544776	      1.50525754	      1.03492637	      0.25128174	     21.03395175	     -3.90562134	     -4.31750264	    -52.01302798	      6.88799447	     -6.49799585	      4.13691382	      1.01393922	      8.54841754	      5.47480820	    -15.79623306	      9.03737953	    -13.56240451	     -2.06969433	     -4.38039467	     -5.18439841	      1.45032631
      1.90900000	      4.29944865	      1.89217855	     -1.93275377	      1.50959295	      1.03502417	      0.25089302	     21.33407815	     -3.80533017	     -4.32260747	    -50.86966265	      6.82388337	     -6.73467084	      4.01429821	      0.68001033	      8.52294879	      5.76106660	    -15.61206527	      9.05106965	    -13.68520324	     -2.13317083	     -4.44117788	     -5.11635270	      1.25321705
